<?xml version="1.0" encoding="UTF-8"?>
<svg xmlns="http://www.w3.org/2000/svg" xmlns:xlink="http://www.w3.org/1999/xlink" width="32px" height="32px" viewBox="0 0 32 32" version="1.1">
<g id="surface1">
<path style=" stroke:none;fill-rule:nonzero;fill:rgb(19.607843%,42.352942%,89.803922%);fill-opacity:1;" d="M 15.898438 0.476562 C 15.613281 0.492188 15.332031 0.566406 15.078125 0.695312 L 3.933594 6.011719 C 3.351562 6.285156 2.925781 6.8125 2.78125 7.441406 L 0.0546875 19.371094 C -0.0742188 19.933594 0.0273438 20.519531 0.355469 21 C 0.390625 21.058594 0.433594 21.113281 0.472656 21.167969 L 8.175781 30.742188 C 8.582031 31.242188 9.191406 31.527344 9.835938 31.527344 L 22.1875 31.527344 C 22.832031 31.527344 23.445312 31.226562 23.851562 30.734375 L 31.546875 21.15625 C 31.949219 20.65625 32.101562 19.996094 31.945312 19.371094 L 29.199219 7.429688 C 29.054688 6.800781 28.628906 6.273438 28.050781 5.996094 L 16.921875 0.695312 C 16.601562 0.535156 16.246094 0.460938 15.890625 0.476562 Z M 15.898438 0.476562 "/>
<path style="fill-rule:nonzero;fill:rgb(100%,100%,100%);fill-opacity:1;stroke-width:0.055;stroke-linecap:butt;stroke-linejoin:miter;stroke:rgb(100%,100%,100%);stroke-opacity:1;stroke-miterlimit:4;" d="M 16.003906 4.542969 C 15.617188 4.570312 15.328125 4.898438 15.347656 5.28125 L 15.347656 5.46875 C 15.363281 5.683594 15.398438 5.894531 15.4375 6.101562 C 15.5 6.503906 15.523438 6.910156 15.503906 7.3125 C 15.46875 7.445312 15.390625 7.566406 15.285156 7.65625 L 15.273438 7.941406 C 14.867188 7.972656 14.464844 8.035156 14.070312 8.125 C 12.402344 8.503906 10.886719 9.367188 9.714844 10.609375 L 9.476562 10.441406 C 9.34375 10.480469 9.199219 10.464844 9.078125 10.402344 C 8.753906 10.160156 8.453125 9.890625 8.183594 9.589844 C 8.046875 9.429688 7.902344 9.273438 7.746094 9.125 L 7.597656 9.007812 C 7.464844 8.902344 7.304688 8.839844 7.136719 8.832031 C 6.929688 8.820312 6.734375 8.910156 6.605469 9.070312 C 6.378906 9.386719 6.453125 9.824219 6.769531 10.050781 L 6.90625 10.160156 C 7.082031 10.28125 7.269531 10.386719 7.457031 10.484375 C 7.8125 10.683594 8.144531 10.914062 8.457031 11.183594 C 8.535156 11.296875 8.582031 11.429688 8.589844 11.570312 L 8.808594 11.769531 C 7.628906 13.535156 7.148438 15.675781 7.449219 17.773438 L 7.167969 17.855469 C 7.097656 17.972656 7 18.070312 6.882812 18.144531 C 6.492188 18.246094 6.09375 18.3125 5.6875 18.339844 C 5.476562 18.34375 5.261719 18.359375 5.050781 18.390625 L 4.871094 18.429688 L 4.851562 18.429688 C 4.601562 18.464844 4.390625 18.636719 4.308594 18.875 C 4.226562 19.117188 4.289062 19.382812 4.464844 19.5625 C 4.644531 19.742188 4.90625 19.804688 5.148438 19.726562 L 5.160156 19.726562 L 5.34375 19.707031 C 5.546875 19.648438 5.746094 19.574219 5.941406 19.488281 C 6.316406 19.339844 6.703125 19.222656 7.101562 19.148438 C 7.238281 19.15625 7.371094 19.203125 7.484375 19.285156 L 7.785156 19.234375 C 8.433594 21.25 9.800781 22.960938 11.625 24.035156 L 11.503906 24.292969 C 11.558594 24.410156 11.578125 24.539062 11.5625 24.667969 C 11.398438 25.050781 11.195312 25.414062 10.960938 25.761719 C 10.828125 25.929688 10.710938 26.109375 10.601562 26.292969 L 10.515625 26.472656 C 10.390625 26.691406 10.398438 26.960938 10.535156 27.171875 C 10.671875 27.382812 10.914062 27.5 11.164062 27.472656 C 11.417969 27.445312 11.628906 27.277344 11.71875 27.042969 L 11.800781 26.871094 C 11.878906 26.671875 11.941406 26.46875 11.992188 26.261719 C 12.171875 25.824219 12.265625 25.355469 12.507812 25.066406 C 12.589844 24.992188 12.6875 24.941406 12.796875 24.925781 L 12.945312 24.652344 C 14.921875 25.414062 17.109375 25.417969 19.089844 24.667969 L 19.222656 24.921875 C 19.359375 24.941406 19.480469 25.019531 19.5625 25.128906 C 19.753906 25.484375 19.902344 25.859375 20.019531 26.246094 C 20.074219 26.457031 20.136719 26.660156 20.214844 26.859375 L 20.296875 27.027344 C 20.386719 27.265625 20.601562 27.429688 20.851562 27.457031 C 21.101562 27.484375 21.347656 27.371094 21.484375 27.160156 C 21.621094 26.949219 21.628906 26.675781 21.5 26.460938 L 21.414062 26.277344 C 21.304688 26.09375 21.183594 25.917969 21.054688 25.746094 C 20.824219 25.414062 20.628906 25.0625 20.453125 24.691406 C 20.421875 24.554688 20.445312 24.410156 20.523438 24.289062 C 20.480469 24.203125 20.441406 24.113281 20.410156 24.023438 C 22.230469 22.9375 23.59375 21.222656 24.234375 19.203125 L 24.519531 19.253906 C 24.621094 19.160156 24.753906 19.109375 24.890625 19.113281 C 25.289062 19.191406 25.679688 19.3125 26.054688 19.453125 C 26.25 19.542969 26.449219 19.621094 26.652344 19.683594 C 26.699219 19.695312 26.769531 19.707031 26.824219 19.722656 L 26.835938 19.722656 C 27.078125 19.796875 27.339844 19.734375 27.519531 19.554688 C 27.695312 19.375 27.757812 19.109375 27.679688 18.871094 C 27.59375 18.628906 27.386719 18.457031 27.132812 18.425781 L 26.941406 18.378906 C 26.726562 18.347656 26.515625 18.332031 26.300781 18.328125 C 25.894531 18.300781 25.496094 18.234375 25.105469 18.132812 C 24.984375 18.0625 24.886719 17.964844 24.816406 17.84375 L 24.546875 17.761719 C 24.835938 15.664062 24.34375 13.53125 23.160156 11.769531 L 23.398438 11.550781 C 23.386719 11.414062 23.433594 11.277344 23.523438 11.175781 C 23.828125 10.910156 24.160156 10.675781 24.511719 10.476562 C 24.703125 10.382812 24.886719 10.273438 25.0625 10.15625 L 25.210938 10.035156 C 25.429688 9.902344 25.550781 9.652344 25.523438 9.394531 C 25.496094 9.136719 25.320312 8.917969 25.078125 8.835938 C 24.832031 8.75 24.5625 8.8125 24.382812 8.996094 L 24.234375 9.113281 C 24.078125 9.261719 23.933594 9.414062 23.796875 9.578125 C 23.53125 9.882812 23.238281 10.15625 22.921875 10.402344 C 22.796875 10.453125 22.65625 10.46875 22.519531 10.445312 L 22.265625 10.625 C 20.804688 9.097656 18.839844 8.144531 16.730469 7.957031 C 16.730469 7.855469 16.71875 7.707031 16.714844 7.660156 C 16.601562 7.582031 16.523438 7.460938 16.496094 7.328125 C 16.484375 6.921875 16.507812 6.519531 16.574219 6.121094 C 16.617188 5.910156 16.648438 5.699219 16.664062 5.488281 L 16.664062 5.285156 C 16.6875 4.902344 16.394531 4.574219 16.011719 4.546875 Z M 15.167969 9.707031 L 14.96875 13.199219 L 14.953125 13.199219 C 14.941406 13.417969 14.816406 13.601562 14.621094 13.703125 C 14.425781 13.808594 14.195312 13.777344 14.019531 13.652344 L 11.15625 11.621094 C 12.066406 10.726562 13.210938 10.101562 14.460938 9.820312 C 14.691406 9.773438 14.929688 9.734375 15.164062 9.707031 Z M 16.835938 9.707031 C 18.339844 9.894531 19.742188 10.570312 20.824219 11.632812 L 17.988281 13.648438 C 17.8125 13.789062 17.574219 13.816406 17.371094 13.722656 C 17.167969 13.625 17.035156 13.421875 17.035156 13.195312 Z M 10.117188 12.933594 L 12.734375 15.273438 L 12.734375 15.289062 C 12.898438 15.429688 12.96875 15.652344 12.921875 15.863281 C 12.875 16.074219 12.710938 16.238281 12.503906 16.296875 L 12.503906 16.308594 L 9.144531 17.273438 C 8.976562 15.757812 9.320312 14.230469 10.117188 12.933594 Z M 21.867188 12.933594 C 22.664062 14.230469 23.015625 15.75 22.871094 17.261719 L 19.503906 16.292969 L 19.503906 16.277344 C 19.292969 16.222656 19.132812 16.054688 19.085938 15.84375 C 19.039062 15.632812 19.109375 15.414062 19.273438 15.269531 L 21.871094 12.941406 Z M 15.464844 15.453125 L 16.535156 15.453125 L 17.191406 16.285156 L 16.953125 17.328125 L 15.992188 17.789062 L 15.027344 17.328125 L 14.800781 16.285156 Z M 18.898438 18.292969 C 18.945312 18.289062 19 18.289062 19.035156 18.292969 L 22.5 18.878906 C 22 20.316406 21.015625 21.546875 19.726562 22.371094 L 18.386719 19.128906 C 18.3125 18.949219 18.328125 18.75 18.429688 18.585938 C 18.53125 18.421875 18.703125 18.320312 18.894531 18.308594 Z M 13.074219 18.308594 C 13.273438 18.3125 13.453125 18.410156 13.558594 18.574219 C 13.667969 18.738281 13.683594 18.945312 13.605469 19.125 L 13.605469 19.140625 L 12.273438 22.355469 C 11 21.539062 10.03125 20.324219 9.515625 18.898438 L 12.953125 18.316406 C 12.992188 18.3125 13.03125 18.3125 13.070312 18.316406 Z M 15.980469 19.707031 C 16.203125 19.699219 16.410156 19.820312 16.515625 20.015625 L 16.53125 20.015625 L 18.222656 23.074219 L 17.546875 23.273438 C 16.300781 23.558594 15 23.492188 13.789062 23.078125 L 15.488281 20.023438 C 15.59375 19.84375 15.78125 19.730469 15.988281 19.726562 Z M 15.980469 19.707031 "/>
</g>
</svg>
