<svg xmlns="http://www.w3.org/2000/svg" width="32" height="32" xmlns:v="https://vecta.io/nano"><path d="M15.898.477c-.285.016-.566.09-.82.219L3.934 6.012a2.1 2.1 0 0 0-1.152 1.43L.055 19.371C-.074 19.934.027 20.52.355 21c.035.059.078.113.117.168l7.703 9.574c.406.5 1.016.785 1.66.785h12.352c.645 0 1.258-.301 1.664-.793l7.695-9.578c.402-.5.555-1.16.398-1.785L29.199 7.43a2.12 2.12 0 0 0-1.148-1.434L16.922.695a2.1 2.1 0 0 0-1.031-.219zm0 0" fill="rgb(19.607843%,42.352942%,89.803922%)"/><path d="M16.004 4.543c-.387.027-.676.355-.656.738v.188c.016.215.051.426.09.633a6 6 0 0 1 .066 1.211c-.035.133-.113.254-.219.344l-.012.285c-.406.031-.809.094-1.203.184-1.668.379-3.184 1.242-4.355 2.484l-.238-.168a.54.54 0 0 1-.398-.039 6.09 6.09 0 0 1-.895-.812l-.437-.465-.148-.117a.8.8 0 0 0-.461-.176c-.207-.012-.402.078-.531.238a.7.7 0 0 0 .164.98l.137.109c.176.121.363.227.551.324a6.05 6.05 0 0 1 1 .699c.078.113.125.246.133.387l.219.199a8.61 8.61 0 0 0-1.359 6.004l-.281.082c-.07.117-.168.215-.285.289a6.47 6.47 0 0 1-1.195.195c-.211.004-.426.02-.637.051l-.18.039h-.02c-.25.035-.461.207-.543.445s-.02.508.156.688a.67.67 0 0 0 .684.164h.012l.184-.02c.203-.059.402-.133.598-.219.375-.148.762-.266 1.16-.34.137.008.27.055.383.137l.301-.051c.648 2.016 2.016 3.727 3.84 4.801l-.121.258c.055.117.074.246.059.375-.164.383-.367.746-.602 1.094-.133.168-.25.348-.359.531l-.086.18a.67.67 0 0 0 .02.699c.137.211.379.328.629.301a.67.67 0 0 0 .555-.43l.082-.172a4.79 4.79 0 0 0 .191-.609c.18-.437.273-.906.516-1.195.082-.074.18-.125.289-.141l.148-.273a8.61 8.61 0 0 0 6.145.016l.133.254a.52.52 0 0 1 .34.207c.191.355.34.73.457 1.117a5.34 5.34 0 0 0 .195.613l.082.168a.67.67 0 0 0 .555.43c.25.027.496-.086.633-.297s.145-.484.016-.699l-.086-.184c-.109-.184-.23-.359-.359-.531-.23-.332-.426-.684-.602-1.055-.031-.137-.008-.281.07-.402a2.26 2.26 0 0 1-.113-.266 8.67 8.67 0 0 0 3.824-4.82l.285.051c.102-.094.234-.145.371-.141.398.078.789.199 1.164.34.195.09.395.168.598.23l.172.039h.012a.68.68 0 0 0 .844-.852c-.086-.242-.293-.414-.547-.445l-.191-.047c-.215-.031-.426-.047-.641-.051a6.47 6.47 0 0 1-1.195-.195.79.79 0 0 1-.289-.289l-.27-.082a8.63 8.63 0 0 0-1.387-5.992l.238-.219c-.012-.137.035-.273.125-.375.305-.266.637-.5.988-.699a4.82 4.82 0 0 0 .551-.32l.148-.121c.219-.133.34-.383.313-.641s-.203-.477-.445-.559-.516-.023-.695.16l-.148.117c-.156.148-.301.301-.437.465a6.23 6.23 0 0 1-.875.824.74.74 0 0 1-.402.043l-.254.18c-1.461-1.527-3.426-2.48-5.535-2.668a4.27 4.27 0 0 0-.016-.297c-.113-.078-.191-.199-.219-.332a6.23 6.23 0 0 1 .078-1.207c.043-.211.074-.422.09-.633v-.203a.7.7 0 0 0-.652-.738zm-.836 5.164l-.199 3.492h-.016c-.012.219-.137.402-.332.504s-.426.074-.602-.051l-2.863-2.031c.91-.895 2.055-1.52 3.305-1.801l.703-.113zm1.668 0c1.504.188 2.906.863 3.988 1.926l-2.836 2.016a.59.59 0 0 1-.617.074c-.203-.098-.336-.301-.336-.527zm-6.719 3.227l2.617 2.34v.016a.59.59 0 0 1 .188.574.59.59 0 0 1-.418.434v.012l-3.359.965a6.85 6.85 0 0 1 .973-4.34zm11.75 0c.797 1.297 1.148 2.816 1.004 4.328l-3.367-.969v-.016c-.211-.055-.371-.223-.418-.434a.59.59 0 0 1 .188-.574l2.598-2.328zm-6.402 2.52h1.07l.656.832-.238 1.043-.961.461-.965-.461-.227-1.043zm3.434 2.84c.047-.004.102-.004.137 0l3.465.586a6.82 6.82 0 0 1-2.773 3.492l-1.34-3.242c-.074-.18-.059-.379.043-.543s.273-.266.465-.277zm-5.824.016c.199.004.379.102.484.266s.125.371.047.551v.016l-1.332 3.215c-1.273-.816-2.242-2.031-2.758-3.457l3.438-.582c.039-.004.078-.004.117 0zm2.906 1.398c.223-.008.43.113.535.309h.016l1.691 3.059-.676.199c-1.246.285-2.547.219-3.758-.195l1.699-3.055c.105-.18.293-.293.5-.297zm0 0" fill="rgb(100%,100%,100%)" stroke-width=".055" stroke="rgb(100%,100%,100%)"/></svg>